<?xml version="1.0" encoding="iso-8859-1"?>
<!-- Generator: Adobe Illustrator 18.0.0, SVG Export Plug-In . SVG Version: 6.00 Build 0)  -->
<!DOCTYPE svg PUBLIC "-//W3C//DTD SVG 1.1//EN" "http://www.w3.org/Graphics/SVG/1.1/DTD/svg11.dtd">
<svg version="1.1" id="Capa_1" xmlns="http://www.w3.org/2000/svg" xmlns:xlink="http://www.w3.org/1999/xlink" x="0px" y="0px"
	 viewBox="0 0 433.5 433.5" style="enable-background:new 0 0 433.5 433.5;" xml:space="preserve">
<g id="XMLID_17_">
	<g>
		<path style="fill:#6DCC93;" d="M216.753,25.429l139.11,296.98h-131.61v-78.79l24.69,33.52c2.45,3.34,7.15,4.05,10.48,1.6
			c3.34-2.46,4.05-7.16,1.6-10.49l-36.77-49.92v-52.13l24.57,35.36c2.36,3.4,7.03,4.24,10.44,1.88c3.4-2.37,4.24-7.04,1.88-10.44
			l-36.89-53.08v-19.71c0-4.14-3.36-7.5-7.5-7.5c-4.15,0-7.5,3.36-7.5,7.5v19.71l-36.89,53.08c-2.37,3.4-1.53,8.07,1.88,10.44
			c1.3,0.91,2.79,1.34,4.27,1.34c2.37,0,4.71-1.12,6.17-3.22l24.57-35.36v52.13l-36.77,49.92c-2.46,3.33-1.75,8.03,1.59,10.49
			c1.34,0.98,2.9,1.46,4.44,1.46c2.3,0,4.57-1.06,6.05-3.06l24.69-33.52v78.79H77.633L216.753,25.429z"/>
		<path style="fill:#4D4D4D;" d="M374.453,326.719c1.08,2.33,0.91,5.04-0.47,7.21c-1.37,2.16-3.76,3.48-6.33,3.48h-143.4v88.34
			c0,4.14-3.36,7.5-7.5,7.5c-4.15,0-7.5-3.36-7.5-7.5v-88.34H65.843c-2.57,0-4.95-1.32-6.33-3.48c-1.38-2.17-1.55-4.88-0.46-7.21
			l150.91-322.15c1.23-2.64,3.88-4.32,6.79-4.32s5.55,1.68,6.79,4.32L374.453,326.719z M355.863,322.409l-139.11-296.98
			l-139.12,296.98h131.62v-78.79l-24.69,33.52c-1.48,2-3.75,3.06-6.05,3.06c-1.54,0-3.1-0.48-4.44-1.46
			c-3.34-2.46-4.05-7.16-1.59-10.49l36.77-49.92v-52.13l-24.57,35.36c-1.46,2.1-3.8,3.22-6.17,3.22c-1.48,0-2.97-0.43-4.27-1.34
			c-3.41-2.37-4.25-7.04-1.88-10.44l36.89-53.08v-19.71c0-4.14,3.35-7.5,7.5-7.5c4.14,0,7.5,3.36,7.5,7.5v19.71l36.89,53.08
			c2.36,3.4,1.52,8.07-1.88,10.44c-3.41,2.36-8.08,1.52-10.44-1.88l-24.57-35.36v52.13l36.77,49.92c2.45,3.33,1.74,8.03-1.6,10.49
			c-3.33,2.45-8.03,1.74-10.48-1.6l-24.69-33.52v78.79H355.863z"/>
	</g>
	<g>
	</g>
</g>
<g>
</g>
<g>
</g>
<g>
</g>
<g>
</g>
<g>
</g>
<g>
</g>
<g>
</g>
<g>
</g>
<g>
</g>
<g>
</g>
<g>
</g>
<g>
</g>
<g>
</g>
<g>
</g>
<g>
</g>
</svg>
